<svg xmlns="http://www.w3.org/2000/svg" xmlns:xlink="http://www.w3.org/1999/xlink" viewBox="0 0 376 376">
    <defs>
        <linearGradient id="a" x1="313.93" y1="311.33" x2="52.81" y2="55.6" gradientUnits="userSpaceOnUse">
            <stop offset="0.03" stop-color="#3f367f" />
            <stop offset="0.86" stop-color="#073e7c" />
        </linearGradient>
        <linearGradient id="b" x1="248.84" y1="294.5" x2="371.51" y2="167.04" gradientUnits="userSpaceOnUse">
            <stop offset="0.03" stop-color="#3f7f22" />
            <stop offset="0.38" stop-color="#3fa96d" />
            <stop offset="0.53" stop-color="#45b37a" />
            <stop offset="0.8" stop-color="#54ce9c" />
            <stop offset="0.93" stop-color="#5cdcae" />
        </linearGradient>
        <linearGradient id="c" x1="283.22" y1="333.4" x2="100.11" y2="154.07" gradientUnits="userSpaceOnUse">
            <stop offset="0.03" stop-color="#3f65b8" />
            <stop offset="0.38" stop-color="#3fa9ff" />
            <stop offset="0.51" stop-color="#32b0fc" />
            <stop offset="0.76" stop-color="#10c2f5" />
            <stop offset="0.86" stop-color="#00cbf2" />
        </linearGradient>
    </defs>
    <!-- <rect width="376" height="376" rx="188" style="fill:url(#a)" /> -->
    <path d="M372.67,129.39h0a26,26,0,0,0-35.52,9.51l-87.4,151.39c8.06,13.63,21.47,21.85,34.92,20.88a32.78,32.78,0,0,0,16.74-6.35L382.19,164.9A26,26,0,0,0,372.67,129.39Z" transform="translate(-62 -37)" style="fill:url(#b)" />
    <g style="opacity:0.15">
        <path d="M273,304a25.31,25.31,0,0,1-9-10c-5.25-9.62-3.75-19.4-3-23l-11.25,19.29c8.06,13.63,21.47,21.85,34.92,20.88a32.78,32.78,0,0,0,16.74-6.35L306,297a24.66,24.66,0,0,1-33,7Z" transform="translate(-62 -37)" />
    </g>
    <path d="M303,302l-29.95,52.08-.2.35A31.51,31.51,0,0,1,263,364.78a26,26,0,0,1-35.52-9.52l-110-190.52a26,26,0,1,1,45-26l5.63,9.75L242,277l8.24,13.67A44.87,44.87,0,0,0,257,299c3.44,3.32,14,13.49,28,12C293.94,310.05,300.16,304.8,303,302Z" transform="translate(-62 -37)" style="fill:url(#c)" />
</svg>